<svg xmlns="http://www.w3.org/2000/svg"  viewBox="0 0 48 48" width="48px" height="48px"><path d="M 13.5 4.9003906 C 11.581818 4.9003906 10 6.4822088 10 8.4003906 L 10 14.830078 A 1.50015 1.50015 0 1 0 13 14.830078 L 13 8.4003906 C 13 8.1185724 13.218182 7.9003906 13.5 7.9003906 L 34.5 7.9003906 C 34.781818 7.9003906 35 8.1185724 35 8.4003906 L 35 11.765625 A 1.50015 1.50015 0 1 0 38 11.765625 L 38 8.4003906 C 38 6.4822088 36.418182 4.9003906 34.5 4.9003906 L 13.5 4.9003906 z M 36.417969 14.539062 C 35.353626 14.538963 34.289024 15.064698 33.748047 16.115234 A 1.50015 1.50015 0 1 0 36.414062 17.488281 C 36.434112 17.449351 36.398569 17.450531 36.417969 17.488281 L 37.802734 20.177734 A 1.50015 1.50015 0 0 0 37.802734 20.179688 C 38.245432 21.03856 39.080256 21.617993 40.023438 21.759766 L 43.507812 22.28125 L 41.201172 24.523438 A 1.50015 1.50015 0 0 0 41.201172 24.525391 C 40.525381 25.18308 40.19534 26.138085 40.34375 27.080078 A 1.50015 1.50015 0 0 0 40.34375 27.082031 L 40.894531 30.5625 A 1.5009881 1.5009881 0 0 0 43.859375 30.091797 L 43.3125 26.65625 L 45.689453 24.345703 C 46.529367 23.530064 46.762981 22.302918 46.429688 21.314453 C 46.096393 20.325988 45.189774 19.500399 44.039062 19.328125 A 1.50015 1.50015 0 0 0 44.037109 19.328125 L 40.46875 18.792969 C 40.45393 18.790769 40.462003 18.787767 40.470703 18.804688 L 39.085938 16.117188 L 39.085938 16.115234 C 38.545375 15.065056 37.481856 14.539163 36.417969 14.539062 z M 11.476562 19.001953 A 1.50015 1.50015 0 0 0 10 20.523438 L 10 39.599609 C 10 42.387109 13.372336 44.113978 15.615234 42.388672 L 24.001953 36.316406 L 32.429688 42.322266 C 33.569226 43.134956 35.028036 43.171828 36.117188 42.605469 C 37.207026 42.038752 38 40.8625 38 39.5 L 38 35.595703 A 1.50015 1.50015 0 1 0 35 35.595703 L 35 39.5 C 35 39.7375 34.892583 39.860076 34.732422 39.943359 C 34.572261 40.026639 34.432019 40.06472 34.171875 39.878906 A 1.50015 1.50015 0 0 0 34.169922 39.878906 L 25.470703 33.677734 L 25.660156 33.839844 C 24.771399 32.951087 23.382033 33.040228 22.501953 33.699219 L 13.820312 39.984375 A 1.50015 1.50015 0 0 0 13.785156 40.011719 C 13.428106 40.286413 13 40.012109 13 39.599609 L 13 20.523438 A 1.50015 1.50015 0 0 0 11.476562 19.001953 z M 30.96875 19.021484 A 1.50015 1.50015 0 0 0 30.714844 19.041016 L 28.794922 19.328125 C 27.643291 19.499442 26.735431 20.325593 26.402344 21.314453 C 26.069257 22.303313 26.302654 23.532011 27.142578 24.347656 L 29.519531 26.65625 L 28.972656 30.091797 C 28.603951 32.420982 31.219216 34.227047 33.300781 33.171875 A 1.50015 1.50015 0 0 0 33.300781 33.169922 L 36.404297 31.597656 A 1.5001999 1.5001999 0 1 0 35.046875 28.921875 L 31.949219 30.494141 L 32.488281 27.082031 A 1.50015 1.50015 0 0 0 32.488281 27.080078 C 32.635884 26.143212 32.311337 25.183019 31.630859 24.523438 L 31.628906 24.521484 L 29.322266 22.283203 L 31.158203 22.007812 A 1.50015 1.50015 0 0 0 30.96875 19.021484 z M 29.523438 26.613281 L 29.525391 26.613281 L 29.525391 26.617188 C 29.525479 26.615588 29.523237 26.614781 29.523438 26.613281 z M 43.306641 26.613281 L 43.308594 26.613281 C 43.308886 26.615181 43.306541 26.615287 43.306641 26.617188 L 43.306641 26.613281 z"/></svg>